# xmcd
#
# Track frame offsets:
#	150
#	14762
#	30151
#	44149
#	61461
#	75130
#	93854
#	104843
#	116275
#	131563
#	155120
#	167730
#	189461
#	203519
#	219969
#	233156
#	248058
#	262230
#	274645
#	290005
#	302613
#	315026
#
# Disc length: 4329 seconds
#
# Revision: 1
# Processed by: cddbd v1.5.2PL0 Copyright (c) Steve Scherf et al.
# Submitted via: audiograbber 1.83.01
#
DISCID=2b10e716
DTITLE=Lars-Luis Linek and Claus "Dixi" Diercks - European Blues Friends
DYEAR=1998
DGENRE=Blues
TTITLE0=Addicted To Blues
TTITLE1=Dehors Il Pleuvait
TTITLE2=I'm Free
TTITLE3=Cigarette Blues
TTITLE4=I Want A Rolls Royce
TTITLE5=But I Believe In God
TTITLE6=Train. Train. Train
TTITLE7=Going Back To The Mountains
TTITLE8=Blues Harp Boogie
TTITLE9=Paris - Mississippi
TTITLE10=Der Hektiker
TTITLE11=I Won't Go To Jail
TTITLE12=Voodoo Pan
TTITLE13=Laissez Les Bons Temps Rouler
TTITLE14=The Girl I Left Behind
TTITLE15=Ich bin ein Bluesmusiker
TTITLE16=Vienna Walz
TTITLE17=Ya Te Llamaremos
TTITLE18=El Blues El Pueblo
TTITLE19=Titty Fritty
TTITLE20=De lange Dag
TTITLE21=Locomotive Blues
EXTD=YEAR: 1998
EXTT0=
EXTT1=
EXTT2=
EXTT3=
EXTT4=
EXTT5=
EXTT6=
EXTT7=
EXTT8=
EXTT9=
EXTT10=
EXTT11=
EXTT12=
EXTT13=
EXTT14=
EXTT15=
EXTT16=
EXTT17=
EXTT18=
EXTT19=
EXTT20=
EXTT21=
PLAYORDER=
